<svg xmlns="http://www.w3.org/2000/svg" width="148.62" height="149.67" viewBox="0 0 148.62 149.67"><rect width="115.18" height="115.18" x="25.36" y="18.23" fill="#509fd5" rx="11.23"/><path fill="#123456" d="M129.31 134.41H36.59a12.25 12.25 0 0 1-12.23-12.24V29.46a12.25 12.25 0 0 1 12.23-12.24h92.72a12.25 12.25 0 0 1 12.23 12.24v92.71a12.25 12.25 0 0 1-12.23 12.24ZM36.59 19.22a10.24 10.24 0 0 0-10.23 10.24v92.71a10.24 10.24 0 0 0 10.23 10.24h92.72a10.24 10.24 0 0 0 10.23-10.24V29.46a10.24 10.24 0 0 0-10.23-10.24Z"/><rect width="115.18" height="115.18" x="16.71" y="18.23" fill="#a0cfeb" rx="11.23"/><path fill="#d9f0f9" d="M26.14 133.41H35a10 10 0 0 1-9.95-10V28.18a10 10 0 0 1 10-10h-8.91a10 10 0 0 0-9.95 10v95.27a10 10 0 0 0 9.95 9.96Z"/><path fill="#fff" d="M44.82 82.12a5 5 0 0 0 2-.46c1.15-.52 2.5-1.55 4.66-1.55 2.44 0 5.29 1.54 7 2.47 1.32.69 3.27-.33 3.27-.33a10.81 10.81 0 0 0 1.92-7.65c-1-5.92-5.2-13.9-2.63-19.91 4.55-10.62 18.62-14.32 18.62-14.32s-.57 8.41-.79 15.38c-.1 3.52.08 8.15.08 8.15-.38 2.07 5.92 30 12.1 35.7 5 6.42 14.48 10.69 14.48 10.69s-2.25-.73-2.44-.44a1.4 1.4 0 0 0 .69 1.41 99.39 99.39 0 0 0-18.47-8c-8.7-2.68-17.48-3.18-24.19-6.26s-6.22-9.17-14.23-12.43c-6.87-2.74-18.33-5.12-18.33-5.12Z"/><path fill="#fff" d="M88.1 90.36c.36-2 5.62-11.19 12.08-19.9 7.24-9.75 15.74-19.06 15.74-19.06a107.66 107.66 0 0 0-19.31 4.43 102.61 102.61 0 0 0-10.76 4.46s-.81 19.21 2.12 31.58a9.75 9.75 0 0 1 .13-1.51Z"/><path fill="#d8d8d7" d="M85.85 60.3c-4.08 2-7 3.6-7 3.6-.39 2.06 5.92 30 12.09 35.7a12.3 12.3 0 0 1-3-7.72c-2.9-12.37-2.09-31.58-2.09-31.58Z"/><path fill="#123456" d="M120.37 134.41H27.66a12.25 12.25 0 0 1-12.24-12.24V29.46a12.25 12.25 0 0 1 12.24-12.24h92.71a12.25 12.25 0 0 1 12.24 12.24v92.71a12.25 12.25 0 0 1-12.24 12.24ZM27.66 19.22a10.25 10.25 0 0 0-10.24 10.24v92.71a10.25 10.25 0 0 0 10.24 10.24h92.71a10.25 10.25 0 0 0 10.24-10.24V29.46a10.25 10.25 0 0 0-10.24-10.24Z"/><path fill="#daf0fa" d="M146.41 88.93a3.16 3.16 0 0 0-2.68-.55l-20.42 5.3-22.35-6a3 3 0 0 0-1.61 0l-25.76 6.9a3.13 3.13 0 0 0-2.3 3v48a3.13 3.13 0 0 0 3.91 3l25-6.69 21.86 5.86a3.15 3.15 0 0 0 2 .15l21.25-5.54a3.1 3.1 0 0 0 2.33-3v-48a3.09 3.09 0 0 0-1.23-2.43Z"/><path fill="#93d0ed" d="M74.35 97.6v47.96l25.75-6.9V90.7l-25.75 6.9z"/><path fill="#509fd5" d="M100.1 90.7v47.96l23.09 6.19V96.89L100.1 90.7z"/><path fill="#93d0ed" d="m144.51 139.36-21.32 5.52V96.92l21.32-5.52v47.96z"/><path fill="#daf0fa" d="M90.83 133.32a8.52 8.52 0 0 0 .12-1.87 1.35 1.35 0 0 1 .19-.78c0-.07.1-.2.07-.22-.18-.22-.37-.54-.64-.48s-.58 0-.7-.34a.14.14 0 0 0-.11-.08.53.53 0 0 1-.32-.47c0-.27-.16-.35-.43-.22a.48.48 0 0 1-.62-.18c-.13-.14.1-.3.17-.45.26-.59.09-.93-.53-.83-.25.05-.24-.08-.18-.25s0-.35-.22-.3a.28.28 0 0 1-.13 0 .54.54 0 0 0-.16-.25l-.5-.37a1.36 1.36 0 0 0-1-.23c-.5.14-.5.63-1 .27s-.5.13-.5.13l-.45-.33a.11.11 0 0 0-.11 0l-.94.24c-.5.14-1-.73-1.5-.59s-1 .76-.5.63a.37.37 0 0 1 .5.37.49.49 0 0 1 .35 0 .34.34 0 0 1 .15.33c0 .5.5.37.5.37s1 .73 1 1.23 1.5.6 1.5.6-.09.14 0 .17a.44.44 0 0 1 .24.32 3.75 3.75 0 0 0 1.17 2 .89.89 0 0 0 .43.25.58.58 0 0 1 .43.3.67.67 0 0 0 .21.2c.62.51 1.45.71 2.07 1.23a.71.71 0 0 0 .22.06s.1 0 .14 0a.67.67 0 0 1 .87-.28c.15.05.18 0 .21-.18Zm-14.52-23.76c1-.77 0-.5.5-.64a2.46 2.46 0 0 0 1-.77l.5-.13a1.26 1.26 0 0 1 .5.87c0 .5 0 1.49.5 1.36a1.35 1.35 0 0 1 1 .23s.5-.13.5.37.5.36.5.86v2c0 .5 0 1 .5.87s0-.5.5-.63a.68.68 0 0 0 .5-.64l.5-.13s.5.36.5-.14.5-1.13.5-.63 0 2 .5 2.36a4 4 0 0 1 1 2.24c0 .5-.5 2.63-.5 3.13a3.85 3.85 0 0 0 .5 1.36 4.83 4.83 0 0 0 1 1.23 2.78 2.78 0 0 1 1 1.74 1.45 1.45 0 0 0 .5 1.36c.5.37 2 1.46 2.5 1.33s.5-.63 0-1.5-.5-.36-.5-1.36a1.89 1.89 0 0 0-1-1.73c-.5-.37-2 0-2-1a1.65 1.65 0 0 0-.5-1.36s-.5.13-.5-.87.5-1.63.5-2.13.5-.64.5-1.14 0-.5.5-.63 0 0 .5.37 1.5.09 1.5.59a1.26 1.26 0 0 0 .5.87l.5-.13.5.36s1-.77 1 .23-.5 2.14 0 1.5l1-1.26s1-.27 1-.77v-.5l.5-.14a.67.67 0 0 1 .5-.63l.5-.13c1-1.27.5-4.13.5-4.13l-.5-.87-1-.23a4.83 4.83 0 0 0-1-1.23l-.5-.37v-2l.5-.63s-.5.13.5-.64l1-.76 3-.81.5-.63 1-.27.27-.2V90.7l-25.77 6.9v12.49a2.58 2.58 0 0 0 2-.53Zm23.79 13.27a1.56 1.56 0 0 0-.46.91 2 2 0 0 1-.62 1.16 1.84 1.84 0 0 1-1.64.46.7.7 0 0 0-.8.35 1.53 1.53 0 0 1-.63.52 4.84 4.84 0 0 1-1.08.26.54.54 0 0 1-.6-.24c-.12-.2-.26-.39-.44-.66a4.49 4.49 0 0 1-.31.48 1.25 1.25 0 0 0-.21 1.76.27.27 0 0 1 .11.26c-.07.38.14.51.41.62a.71.71 0 0 1 .51.68 6.87 6.87 0 0 0 .25 1.38c0 .09.06.12.16.12a1.79 1.79 0 0 0 1.12-.38c.21-.17.27-.15.29.08.06.5.07.49.59.28a2.15 2.15 0 0 0 1-.52c.09-.11.18 0 .27 0s.36.14.61 0c.53-.18.67-.11.81.36.05.14.09.16.23 0l.43-.33Zm0 10.39a1.05 1.05 0 0 0-.58.11l-.19.1c-.22.08-.77 0-.77-.14 0-.45-.35-.4-.66-.42a4.54 4.54 0 0 1-1.28-.06c-.2-.08-.31 0-.38.22a.62.62 0 0 1-.59.46c-.45.05-.89.11-1.34.2-.25 0-.42 0-.5-.19s-.13-.18-.28-.13a1 1 0 0 1-.72 0 .8.8 0 0 0-.64.05 1.56 1.56 0 0 1-.76.21.27.27 0 0 0-.29.18 3 3 0 0 1-.55.86 1.77 1.77 0 0 1 1 0c.08 0 .18 0 .15.17s.05.18.18.17a2.92 2.92 0 0 1 1 0 1.72 1.72 0 0 0 1.07-.05c.37-.11.75-.19 1.12-.31a.83.83 0 0 1 .74 0 .92.92 0 0 0 .64 0 6 6 0 0 1 1.75-.26.46.46 0 0 0 .31-.1 1 1 0 0 1 .78-.2 5.88 5.88 0 0 0 .6 0h.25Z"/><path fill="#92d0ee" d="M107.88 125.5c-.25-.15-.4-.14-.46.1s-.24.33-.53.21a.84.84 0 0 0-.17 0c-.15-.06-.22 0-.24.14 0 .36-.11.71-.16 1.06 0 .1 0 .18-.12.22-.36.15-.41.51-.42.9a1.27 1.27 0 0 1-.45 1.11c-.24.16 0 .42 0 .64s.2.2.33.24.23 0 .28.19a1.26 1.26 0 0 1 .08.78 4.45 4.45 0 0 0-.19.82c-.07.39.06.57.46.67.12 0 .25.05.37.09s.21 0 .21-.17v-1.21a3 3 0 0 0-.1-1.25c0-.1 0-.17.08-.2l.34-.13a.48.48 0 0 1 .41.09c.12.11 0 .24 0 .36v.21a.8.8 0 0 0 .37.89c.37.27.38.28.27.66 0 .15 0 .22.13.34s.41.07.62.07v.63c0 .11.36.58.51.57a.65.65 0 0 0 .37-1 7.93 7.93 0 0 0-.94-1.37c-.15-.16-.19-.26 0-.3s.17-.17 0-.36c-.26-.41-.49-.82-.75-1.23-.1-.16-.13-.25.07-.26a1.78 1.78 0 0 0 .85-.34.87.87 0 0 1 1.07-.14.57.57 0 0 0-.54-.39 3.75 3.75 0 0 1-1.15-.07.56.56 0 0 0-.65.13l-.12.1a.43.43 0 0 1-.6-.32.79.79 0 0 0-.38-.51c-.12-.07-.25-.14-.25-.31v-.48c.06-.4.29-.58.61-.49.51.13 1 .26 1.53.41a4.66 4.66 0 0 1 1.53.56.56.56 0 0 0 .23.06c1 .1 1 .08 1.61-.6.12-.14.09-.23 0-.39s-.23 0-.29 0a2.22 2.22 0 0 1-2.5 0c-.41-.24-.89-.47-1.32-.73Zm4.01 12.26a.46.46 0 0 1-.43.18h-.5a.37.37 0 0 0-.38.21 4.42 4.42 0 0 0-.17.65.09.09 0 0 0 .09.12c.34 0 .77.13 1-.11a2.09 2.09 0 0 1 1.42-.57c.31 0 .6-.1.91-.12a.6.6 0 0 0 .52-.37c-.7-.05-1.35-.22-2-.21a.56.56 0 0 0-.46.22Zm5.67-5.01a.59.59 0 0 1-.33-.17 1.23 1.23 0 0 0-.8-.4q-.34 0-.69-.12c-.24-.06-.32.13-.46.23s0 .1.06.13a1.6 1.6 0 0 0 .66.34 2.22 2.22 0 0 1 .68.21 5.06 5.06 0 0 1 1.54.84.83.83 0 0 0-.66-1.06Zm-2.69-4.07a1.1 1.1 0 0 0 .65 1 1.61 1.61 0 0 1-.32-1.09c0-.24 0-.33.3-.24.07 0 .26.12.16-.07s0-.35.19-.41a.39.39 0 0 0 .14-.49c-.11-.14-.21 0-.32 0a.11.11 0 0 0-.08 0c-.14.05-.22 0-.31-.18a.72.72 0 0 1-.08-.7c-.44 0-.72.71-.51 1.15a1.48 1.48 0 0 1 .18 1.03Zm-8.17 8.27a3.47 3.47 0 0 0-1-.32c-.09 0-.26-.12-.24 0s0 .35.27.38a1.46 1.46 0 0 1 .77.47c.46.43.46.42 1 .22a2.86 2.86 0 0 0-.8-.75Zm7.26-4.27c.25.06.36-.11.28-.36s-.35-.38-.57-.48a1.25 1.25 0 0 0-.47 0c-.08 0-.08 0 0 .11a1.53 1.53 0 0 0 .76.73Zm-13.37 1.21c.62.72.69.75 1.09.41a1.35 1.35 0 0 0-1.09-.41Zm9.53 2.65c-.31-.2-.55-.19-.74 0s-.15.17-.3.11-.32-.32-.5-.31a2.12 2.12 0 0 1-1.27-.51.7.7 0 0 0-.54-.14 2.3 2.3 0 0 1-.91.08c-.5-.63-1.22-.5-1.78-1 0 .25.19.39.19.57a6.63 6.63 0 0 1-1.42-.58.86.86 0 0 0-.5-.12c-.28 0-.25.22-.24.42s.2.14.3.19l.48.21a2.55 2.55 0 0 0 .71.26l2.2.18a8.45 8.45 0 0 0 1.55.61 9.73 9.73 0 0 1 1.06.28 1.3 1.3 0 0 0 .67.05h1.4c-.17-.21-.27-.24-.36-.3Zm3.66.08c-.3.07-.71-.18-.83.27.55.21.61.19.83-.27Zm1.59-5.89-.39-.36c-.06 0-.13-.16-.2-.09s-.17.14-.14.26.15.08.22.11l.49.13Zm2.55-1a.82.82 0 0 0 .87.33c-.3-.23-.55-.54-.87-.33Zm-6.55 7.04c0 .07-.09.15-.07.22s.13.07.2.09l.52.06a1.76 1.76 0 0 0-.46-.36c-.07-.05-.15-.1-.19-.01Zm-10.54-33.88 1 .26a21 21 0 0 0 3.5-1.06 4.83 4.83 0 0 0 1-1.23l1-.73.5-.37.5-.86s0-1 .5-1.37a1.14 1.14 0 0 0 .5-.86v-3.5l-9.23-2.47v12.36Zm2.16 21.69c.12 0 .1-.16 0-.29s-.1-.21-.15-.31c-.18-.36-.38-.69-.2-1.06s-.09-.66-.49-.84-.6-.25-.91-.36c-.5-.18-.63-.1-.78.34-.09.27-.09.62-.39.76v7.6l.84-.18a.26.26 0 0 0 .17-.14c.14-.29.29-.57.44-.85a.24.24 0 0 0 0-.27c-.12-.19-.37-.41-.31-.56s.29-.21.45-.3l.26-.15a1.06 1.06 0 0 0 .58-.78c0-.23.11-.45.17-.68.11-.39.23-.46.66-.37l.79.12-1.13-1.34c-.11-.15-.17-.26 0-.34Z"/><path fill="#daf0fa" d="M100.1 133.22v.94c.19.08.19 0 .18-.34 0-.18.1-.4-.06-.53s-.08-.04-.12-.07Z"/><path fill="#92d0ee" d="M123.19 134.21c-.08 0-.17.32-.25.22a1.85 1.85 0 0 1-.38-.7.52.52 0 0 0-.31-.37.28.28 0 0 1-.27-.24 1.31 1.31 0 0 1 0-.58 1.59 1.59 0 0 0-.05-.91c-.06-.25-.15-.39-.41-.43a1.07 1.07 0 0 1-.8-.47c-.14-.19-.82-.35-1-.23a.82.82 0 0 1-.65.16c-.35 0-.41.29-.57.48s0 .1.1.14l.69.38c.1 0 .18.09.2.22a.81.81 0 0 0 .66.74 5.06 5.06 0 0 0 1.27.12c.07 0 .18 0 .21.1a.31.31 0 0 1-.38.33c-.18-.05-.37-.16-.53-.07a.79.79 0 0 1-.7 0c-.16-.06-.31-.09-.42 0a1.55 1.55 0 0 1 .5.31 1.52 1.52 0 0 1 .41.9c0 .1 0 .26.14.31s.33.13.45 0 .19-.15.27-.23.17-.07.29 0l1 .92c.17.16.35.51.55.61Z"/><path fill="#daf0fa" d="M130.77 130.36a18.73 18.73 0 0 1-2.44 1.41 6.87 6.87 0 0 1-2.15-.36 1.25 1.25 0 0 0-1.38.77.61.61 0 0 1-.46.42.74.74 0 0 0-.45.34 10.6 10.6 0 0 0-.7 1.27v1.78a8.59 8.59 0 0 1 2.39.12.77.77 0 0 1 .62.44c.2.52.37 1.05.57 1.57.06.16 0 .24-.15.33s-.32.13-.41.3c-.23.43-.44.87-.67 1.32a1.83 1.83 0 0 0 1.1-.43 2 2 0 0 1 .46-.29c1.25-.48 1.32-.48 2.2.16l.35.26a.43.43 0 0 0 .28.09c.15 0 .2-.05.19-.19 3.59-1.47 5.43-3 6.33-4.32.95-1.14-2.6-6.46-5.68-4.99Z"/><path fill="#123456" d="M74.31 149.66a4.09 4.09 0 0 1-4.11-4.1v-48a4.11 4.11 0 0 1 3-4l25.76-6.9a4.05 4.05 0 0 1 2.13 0l22.22 5.99 20.21-5.24a4.19 4.19 0 0 1 3.5.7h.05a4.1 4.1 0 0 1 1.59 3.25v48a4.12 4.12 0 0 1-3.08 4l-21.35 5.47a4.17 4.17 0 0 1-2.59-.18l-21.54-5.76-24.69 6.63a3.76 3.76 0 0 1-1.1.14Zm25.75-61.07a2 2 0 0 0-.54.07l-25.76 6.9a2.11 2.11 0 0 0-1.56 2v48a2.1 2.1 0 0 0 2.65 2l25-6.68a.92.92 0 0 1 .52 0l21.86 5.85h.14a2.14 2.14 0 0 0 1.37.1l21.31-5.52a2.11 2.11 0 0 0 1.58-2v-48a2.1 2.1 0 0 0-.79-1.64 2.15 2.15 0 0 0-1.82-.37l-20.46 5.3a1 1 0 0 1-.51 0l-22.36-6a2.08 2.08 0 0 0-.59-.01Z"/><path fill="#ffcc05" d="M45.63 38.47a22.32 22.32 0 1 0-35.04 18.36A11.26 11.26 0 0 1 15 66.15v9.54h16.63V65.24a9.67 9.67 0 0 1 3.91-8.14c.31-.2.61-.41.91-.63l.12-.07a22.28 22.28 0 0 0 9.06-17.93Z"/><path fill="#123456" d="M31.63 76.66H15a1 1 0 0 1-1-1v-9.54a10.26 10.26 0 0 0-4-8.51h-.06a23.32 23.32 0 1 1 27.37-.51 1 1 0 0 1-.22.18l-.11.06c-.23.18-.55.4-.87.61a8.65 8.65 0 0 0-3.46 7.25.74.74 0 0 1 0 .21v10.25a1 1 0 0 1-1.02 1Zm-15.63-2h14.63v-9.42a.57.57 0 0 1 0-.13 10.65 10.65 0 0 1 4.29-8.79l.94-.65.07-.06a21.11 21.11 0 0 0 8.65-17.12 21.32 21.32 0 1 0-33.47 17.5l.08.06a12.2 12.2 0 0 1 4.76 10.14Z"/><path fill="#faa91a" d="M45.93 38.47a22.32 22.32 0 0 0-12.37-20 22.3 22.3 0 0 1 .39 36.16l-.12.07c-.3.22-.61.43-.92.63a9.67 9.67 0 0 0-3.9 8.14v10.44h-13.7v1.75h16.62V65.24a9.7 9.7 0 0 1 3.9-8.14c.32-.2.62-.41.92-.63l.12-.07a22.28 22.28 0 0 0 9.06-17.93Z"/><path fill="#123456" d="M31.93 76.66H15.31a1 1 0 0 1-1-1v-9.54a10.32 10.32 0 0 0-4-8.5h-.06a23.31 23.31 0 1 1 36.67-19.1 23.09 23.09 0 0 1-9.33 18.63 1.24 1.24 0 0 1-.22.18l-.11.06c-.24.18-.55.4-.88.61a8.68 8.68 0 0 0-3.45 7.25 1.48 1.48 0 0 1 0 .21v10.2a1 1 0 0 1-1 1Zm-15.62-2h14.62v-9.55a10.68 10.68 0 0 1 4.3-8.79l.94-.65.07-.06a21.3 21.3 0 1 0-24.82.38l.08.06a12.23 12.23 0 0 1 4.81 10.12Z"/><path fill="#123456" d="M6.25 34.66a1 1 0 0 1-.24 0 1 1 0 0 1-.7-1.25c.12-.45 2.9-11.11 13.86-13.85a1 1 0 0 1 .48 1.94c-9.8 2.44-12.4 12.33-12.43 12.4a1 1 0 0 1-.97.76Zm20.13 35.37a.5.5 0 0 1-.5-.5V39.32a3.8 3.8 0 0 1-2.57-1.74 4.34 4.34 0 0 1-2.58 1.74v30.21a.5.5 0 0 1-.5.5.5.5 0 0 1-.5-.5V38.91a.51.51 0 0 1 .43-.5c.11 0 2.64-.41 2.64-2.57a.5.5 0 0 1 .5-.5.51.51 0 0 1 .5.5 2.73 2.73 0 0 0 2.63 2.57.51.51 0 0 1 .43.5v30.62a.5.5 0 0 1-.48.5Z"/><rect width="21" height="4.08" x="13.11" y="72.75" fill="#509fd5" rx="1.72"/><path fill="#123456" d="M32.4 77.83H14.83a2.72 2.72 0 0 1-2.72-2.72v-.65a2.72 2.72 0 0 1 2.72-2.72H32.4a2.71 2.71 0 0 1 2.71 2.72v.65a2.71 2.71 0 0 1-2.71 2.72Zm-17.57-4.09a.72.72 0 0 0-.72.72v.65a.72.72 0 0 0 .72.72H32.4a.72.72 0 0 0 .71-.72v-.65a.71.71 0 0 0-.71-.72Z"/><rect width="21" height="4.08" x="13.11" y="68.66" fill="#509fd5" rx="1.72"/><path fill="#123456" d="M32.4 73.74H14.83a2.72 2.72 0 0 1-2.72-2.71v-.65a2.72 2.72 0 0 1 2.72-2.72H32.4a2.71 2.71 0 0 1 2.71 2.72v.65a2.71 2.71 0 0 1-2.71 2.71Zm-17.57-4.08a.72.72 0 0 0-.72.72v.65a.71.71 0 0 0 .72.71H32.4a.71.71 0 0 0 .71-.71v-.65a.71.71 0 0 0-.71-.72Z"/><path fill="#93d0ed" d="M14.72 72.74h2.59a1.51 1.51 0 0 1-1.51-1.5v-1.08a1.51 1.51 0 0 1 1.51-1.5h-2.59a1.5 1.5 0 0 0-1.5 1.5v1.08a1.5 1.5 0 0 0 1.5 1.5Z"/><path fill="#123456" d="M32.4 73.74H14.83a2.72 2.72 0 0 1-2.72-2.71v-.65a2.72 2.72 0 0 1 2.72-2.72H32.4a2.71 2.71 0 0 1 2.71 2.72v.65a2.71 2.71 0 0 1-2.71 2.71Zm-17.57-4.08a.72.72 0 0 0-.72.72v.65a.71.71 0 0 0 .72.71H32.4a.71.71 0 0 0 .71-.71v-.65a.71.71 0 0 0-.71-.72Z"/><rect width="21" height="4.08" x="13.11" y="76.83" fill="#509fd5" rx="1.72"/><path fill="#123456" d="M32.4 81.91H14.83a2.72 2.72 0 0 1-2.72-2.72v-.65a2.71 2.71 0 0 1 2.72-2.71H32.4a2.71 2.71 0 0 1 2.71 2.71v.65a2.71 2.71 0 0 1-2.71 2.72Zm-17.57-4.08a.71.71 0 0 0-.72.71v.65a.72.72 0 0 0 .72.72H32.4a.71.71 0 0 0 .71-.72v-.65a.71.71 0 0 0-.71-.71Z"/><path fill="#93d0ed" d="M14.72 80.62h2.59a1.51 1.51 0 0 1-1.51-1.5v-1.08a1.52 1.52 0 0 1 1.51-1.51h-2.59a1.51 1.51 0 0 0-1.5 1.51v1.08a1.5 1.5 0 0 0 1.5 1.5Zm0-4.38h2.59a1.51 1.51 0 0 1-1.51-1.5v-1.08a1.51 1.51 0 0 1 1.51-1.5h-2.59a1.5 1.5 0 0 0-1.5 1.5v1.08a1.5 1.5 0 0 0 1.5 1.5Z"/><path fill="#123456" d="M32.4 77.83H14.83a2.72 2.72 0 0 1-2.72-2.72v-.65a2.72 2.72 0 0 1 2.72-2.72H32.4a2.71 2.71 0 0 1 2.71 2.72v.65a2.71 2.71 0 0 1-2.71 2.72Zm-17.57-4.09a.72.72 0 0 0-.72.72v.65a.72.72 0 0 0 .72.72H32.4a.72.72 0 0 0 .71-.72v-.65a.71.71 0 0 0-.71-.72Z"/><path fill="#123456" d="M32.4 81.91H14.83a2.72 2.72 0 0 1-2.72-2.72v-.65a2.71 2.71 0 0 1 2.72-2.71H32.4a2.71 2.71 0 0 1 2.71 2.71v.65a2.71 2.71 0 0 1-2.71 2.72Zm-17.57-4.08a.71.71 0 0 0-.72.71v.65a.72.72 0 0 0 .72.72H32.4a.71.71 0 0 0 .71-.72v-.65a.71.71 0 0 0-.71-.71Zm4.73-66.91-5.45-5.44"/><path fill="#ffcc05" d="M19.56 11.92a1 1 0 0 1-.71-.3l-5.44-5.44a1 1 0 1 1 1.41-1.41l5.49 5.44a1 1 0 0 1 0 1.41 1 1 0 0 1-.75.3Z"/><path fill="#123456" d="m27.98 10.92 5.44-5.44"/><path fill="#ffcc05" d="M27.98 11.92a1 1 0 0 1-.7-.3 1 1 0 0 1 0-1.41l5.44-5.44a1 1 0 0 1 1.41 1.41l-5.44 5.44a1 1 0 0 1-.71.3Zm-4.26-.16a1 1 0 0 1-1-1V1a1 1 0 0 1 2 0v9.76a1 1 0 0 1-1 1Z"/><path fill="#123456" d="M5.89 42.53a1 1 0 0 1-.88-.52 6 6 0 0 1-.42-5.28 1 1 0 0 1 1.81.85 4 4 0 0 0 .37 3.47 1 1 0 0 1-.4 1.36 1 1 0 0 1-.48.12Z"/></svg>