<svg xmlns="http://www.w3.org/2000/svg" width="148.98" height="136.27" viewBox="0 0 148.98 136.27"><path fill="#92d2f1" d="m145.63 128.64-10.14-22.1s-2.07-4.33-6.3-4.33H18.08a6.22 6.22 0 0 0-6.16 4.33l-10.08 22.1"/><path fill="#123456" d="M1.84 129.64a1 1 0 0 1-.91-1.42l10.08-22.14a7.19 7.19 0 0 1 7.07-4.91H129.2c4.81 0 7.1 4.69 7.2 4.89l10.09 22.2a1 1 0 0 1-.49 1.33 1 1 0 0 1-1.32-.49l-10.09-22.15s-1.86-3.74-5.39-3.74H18.08a5.26 5.26 0 0 0-5.23 3.68l-10.1 22.2a1 1 0 0 1-.91.55Z"/><path fill="#7ec0ed" d="M142.76 122.42c-.56-1.22.34 4.24-3.12 4.21H7.78c-3.46 0-2.57-5.43-3.13-4.21 0 0-3.46 6.86-3.46 8.11v.84a3.9 3.9 0 0 0 3.9 3.91h137.24a3.91 3.91 0 0 0 3.9-3.91v-.84c0-1.25-3.47-8.11-3.47-8.11Z"/><path fill="#123456" d="M142.33 136.28H5.09a4.9 4.9 0 0 1-4.9-4.91v-.84c0-.93.73-2.49 1.69-4.42.19-.36.34-.68.44-.9a1 1 0 0 1 1.82.83c-.1.24-.27.57-.47 1a18.08 18.08 0 0 0-1.48 3.52v.84a2.91 2.91 0 0 0 2.9 2.91h137.24a2.91 2.91 0 0 0 2.9-2.91v-.84a10.53 10.53 0 0 0-1.09-2.74c-.15-.3-.29-.59-.41-.86a1 1 0 0 1 1.81-.85c.12.26.26.54.4.83a10.12 10.12 0 0 1 1.29 3.62v.84a4.91 4.91 0 0 1-4.9 4.88Z"/><path fill="#d9f0f9" d="M19.76 126.36a3.36 3.36 0 0 1-2.81-4.84l5.72-15a6.24 6.24 0 0 1 6.17-4.33h89.65c4.23 0 6.29 4.33 6.29 4.33l5.71 14.96a3.38 3.38 0 0 1-2.83 4.88Z"/><ellipse cx="74.49" cy="114.51" fill="#92d2f1" rx="15.97" ry="2.48"/><path fill="#fff" d="M111.74 126.34 62.72 102.7l11.05-.47 49.44 23.85-11.47.26zm18.44-2.22-44.35-21.39 7.12-.3 37.73 18.19-.5 3.5z" opacity=".7"/><path fill="#123456" d="M127.66 127.36H19.76a4.06 4.06 0 0 1-3.41-1.9 4.55 4.55 0 0 1-.31-4.35l5.7-14.93a7.22 7.22 0 0 1 7.1-5h89.65c4.8 0 7.1 4.69 7.2 4.89l5.77 15a4.5 4.5 0 0 1-.33 4.32 4.06 4.06 0 0 1-3.47 1.97Zm-98.82-24.15a5.26 5.26 0 0 0-5.23 3.68l-5.72 15a2.57 2.57 0 0 0 .14 2.5 2 2 0 0 0 1.73 1h107.9a2.07 2.07 0 0 0 1.75-1 2.58 2.58 0 0 0 .17-2.47l-5.77-15s-1.85-3.68-5.36-3.68Z"/><path fill="#123456" d="M1.84 129.64a1 1 0 0 1-.91-1.42l10.08-22.14a7.19 7.19 0 0 1 7.07-4.91H129.2c4.81 0 7.1 4.69 7.2 4.89l10.09 22.2a1 1 0 0 1-.49 1.33 1 1 0 0 1-1.32-.49l-10.09-22.15s-1.86-3.74-5.39-3.74H18.08a5.26 5.26 0 0 0-5.23 3.68l-10.1 22.2a1 1 0 0 1-.91.55Z"/><rect width="20.42" height="2.95" x="110.39" y="129.6" fill="#d9f0f9" rx="1.41"/><rect width="20.42" height="2.95" x="84.91" y="129.6" fill="#d9f0f9" rx="1.41"/><path fill="#d9f0f9" d="m16.49 112.64-2.2 5a1.49 1.49 0 0 1-1.93.8 1.48 1.48 0 0 1-.8-1.93l2.2-5a1.48 1.48 0 0 1 1.93-.8 1.48 1.48 0 0 1 .8 1.93Z"/><ellipse cx="108.99" cy="109.91" fill="#92d2f1" rx="7.98" ry="1.24"/><ellipse cx="37.73" cy="109.91" fill="#92d2f1" rx="7.98" ry="1.24"/><path fill="#d9f0f9" d="m116.69 112.81 32.29-76.17S125.59 0 75.49 0h-2C23.39 0 0 36.64 0 36.64l32.29 76.17s13.45 5.15 42.2 5.77 42.2-5.77 42.2-5.77Z" opacity=".4"/><path fill="#92d2f1" d="M30.15 22.64a1 1 0 0 1-1-.8l-1.66-8.58a1.019 1.019 0 1 1 2-.39l1.7 8.56a1 1 0 0 1-.84 1.21Zm18.43 92.65a1 1 0 0 1-1-.81L30.77 29.85a1.019 1.019 0 1 1 2-.39l16.84 84.63a1 1 0 0 1-.79 1.18Zm67.91-89.65h-.19a1 1 0 0 1-.79-1.18l2.26-11.54a1.019 1.019 0 1 1 2 .39l-2.28 11.49a1 1 0 0 1-1 .84ZM99.2 113.83h-.19a1 1 0 0 1-.79-1.17l15.74-80.32a1 1 0 0 1 1.17-.79 1 1 0 0 1 .79 1.18l-15.73 80.29a1 1 0 0 1-.99.81Z"/><path fill="#faa91a" d="M73.67 98.74a22.4 22.4 0 0 1-21.9-17.1 21.86 21.86 0 0 0-.59 5 22.5 22.5 0 0 0 45 0 21.31 21.31 0 0 0-.59-5 22.4 22.4 0 0 1-21.92 17.1Z"/><ellipse cx="73.67" cy="81.63" fill="#fc0" rx="21.9" ry="17.11"/><path fill="#123456" d="M73.67 109.64a23.07 23.07 0 1 1 23.49-23 23.31 23.31 0 0 1-23.49 23Zm0-44.14a21.07 21.07 0 1 0 21.49 21.14 21.31 21.31 0 0 0-21.49-21.11Z"/><path fill="#1ba0e2" d="M63.36 95.53V77.64a1 1 0 0 1 1-1h10.13a1 1 0 0 1 1 1v6h6.07a2 2 0 0 1 2 2v9.92a1 1 0 0 1-1 1H72.49a1 1 0 0 1-1-1v-1a1 1 0 0 0-1-1h-2a1 1 0 0 0-1 1v1a1 1 0 0 1-1 1h-2a1 1 0 0 1-1.13-1.03Zm3.03-13.89a1 1 0 0 0 1 1h4.1a1 1 0 0 0 1-1 1 1 0 0 0-1-1H67.4a1 1 0 0 0-1.01 1Zm0 4a1 1 0 0 0 1 1h4.1a1 1 0 1 0 0-2H67.4a1 1 0 0 0-1.01 1Zm0 4a1 1 0 0 0 1 1h4.1a1 1 0 1 0 0-2H67.4a1 1 0 0 0-1.01.94Zm11.13 1a1 1 0 1 0 0 2h3a1 1 0 1 0 0-2Zm0-4a1 1 0 1 0 0 2h3a1 1 0 1 0 0-2Z"/><path fill="#1ba0e2" d="M81.57 82.64a1 1 0 0 1-1-1v-1h-2v1a1 1 0 0 1-2 0v-4a1 1 0 0 1 2 0v1h2v-1a1 1 0 0 1 2 0v4a1 1 0 0 1-1 1Z"/><path fill="#faa91a" d="M73.67 40.39a20.81 20.81 0 0 1-20.34-15.9 20.14 20.14 0 0 0-.55 4.62 20.9 20.9 0 0 0 41.79 0 20.14 20.14 0 0 0-.55-4.62 20.83 20.83 0 0 1-20.35 15.9Z"/><ellipse cx="73.67" cy="24.49" fill="#fc0" rx="20.35" ry="15.89"/><path fill="#123456" d="M73.67 50.64a21.73 21.73 0 0 1-21.89-21.5 21.9 21.9 0 0 1 43.79 0 21.73 21.73 0 0 1-21.9 21.5Zm0-41a19.72 19.72 0 0 0-19.89 19.47 19.9 19.9 0 0 0 39.79 0 19.73 19.73 0 0 0-19.9-19.47Z"/><path fill="#1ba0e2" d="m73.49 23.78 1.93.38 4.69-4a2.22 2.22 0 0 1 3 .1 2.13 2.13 0 0 1 .11 2.93l-4.08 4.6.38 1.9a1.07 1.07 0 0 1 1.35.12 1 1 0 0 1 0 1.48l-.84.82 1.13 5.58a1.056 1.056 0 0 1-2 .68l-3.85-7.24-2.82 2.43a2.52 2.52 0 0 1-.87.43l-.23.06v4.59a1.06 1.06 0 0 1-2 .53l-2.11-3.45-3.46-2.08a1.003 1.003 0 0 1 .55-1.93h4.67v-.23a2.52 2.52 0 0 1 .48-.89l2.44-2.69-7.38-3.78a1.03 1.03 0 0 1 .69-1.94l5.69 1.12.84-.83a1.07 1.07 0 0 1 1.5 0 1 1 0 0 1 .19 1.31Z"/><path fill="#faa91a" d="M118.28 66.33A19 19 0 0 1 99.8 52.16a18 18 0 0 0-.6 4.56 19.08 19.08 0 0 0 38.16 0 18.5 18.5 0 0 0-.59-4.56 19 19 0 0 1-18.49 14.17Z"/><ellipse cx="118.28" cy="52.16" fill="#fc0" rx="18.49" ry="14.17"/><path fill="#123456" d="M118.28 76.44a19.72 19.72 0 1 1 20.08-19.72 19.93 19.93 0 0 1-20.08 19.72Zm0-37.44a17.72 17.72 0 1 0 18.08 17.72A17.92 17.92 0 0 0 118.28 39Z"/><path fill="#1ba0e2" d="m128.58 53.56-1.78-1.92a.23.23 0 0 0-.3 0 1.08 1.08 0 0 1-1.49-.06 1 1 0 0 1 0-1.46.22.22 0 0 0 0-.3l-1.78-1.87a.79.79 0 0 0-1.11 0l-2.16 2 6.36 6.7 2.16-2a.76.76 0 0 0 0-1.09m-8.99-3.11-3.69 3.37-6.62 6.05a.76.76 0 0 0 0 1.09l1.78 1.88a.22.22 0 0 0 .3 0 1.09 1.09 0 0 1 1.49.07 1 1 0 0 1 0 1.46.21.21 0 0 0 0 .3l1.78 1.87a.8.8 0 0 0 1.12 0l6.31-5.77 4-3.65Zm-6.87 10a.4.4 0 0 1 0-.57l3.15-2.88 2.93-2.67a.43.43 0 0 1 .59 0 .42.42 0 0 1 0 .58l-3.48 3.18-2.6 2.37a.41.41 0 0 1-.58 0m3.15 2.13a.86.86 0 0 1-1.18 0v-.05a.82.82 0 0 1 .07-1.15l1.14-1 2.46-2.25a.86.86 0 0 1 1.18 0 .82.82 0 0 1-.07 1.15l-1.69 1.54Z"/><path fill="#faa91a" d="M31.69 66.09a18.8 18.8 0 0 1-18.29-14 18.1 18.1 0 0 0-.59 4.55 18.71 18.71 0 0 0 18.88 18.47 18.7 18.7 0 0 0 18.87-18.47 18.1 18.1 0 0 0-.59-4.51 18.8 18.8 0 0 1-18.28 13.96Z"/><ellipse cx="31.69" cy="52.07" fill="#fc0" rx="18.29" ry="14.01"/><path fill="#123456" d="M31.69 76.11a19.53 19.53 0 1 1 19.87-19.47 19.73 19.73 0 0 1-19.87 19.47Zm0-37a17.53 17.53 0 1 0 17.87 17.53 17.72 17.72 0 0 0-17.87-17.58Z"/><path fill="#1ba0e2" d="M34.28 59.31a.57.57 0 0 0 .59-.57.58.58 0 0 0-.59-.57h-.58v-.76a2.45 2.45 0 0 0 0-.39h.25l.85-3.66h-1.7l-.85.92h-.84v-3.64h.84l.85.92h1.7l-.85-3.67h-1.46a2.59 2.59 0 0 0-1.35.23 1.65 1.65 0 0 0-.66.65 2.49 2.49 0 0 0-.23 1.32v4.67h-4.33a2.7 2.7 0 0 0-2.72 2.68v.76h-.59a.58.58 0 0 0-.58.57.57.57 0 0 0 .58.57h.59a1.19 1.19 0 0 0-.57.15 1 1 0 0 0-.44.43 1.55 1.55 0 0 0-.16.88v1.65a1.55 1.55 0 0 0 .16.88 1 1 0 0 0 .44.43 1.19 1.19 0 0 0 .57.15v1.13a1.17 1.17 0 0 0 2.33 0V63.9h5.84v1.14a1.17 1.17 0 0 0 2.33 0V63.9a1.23 1.23 0 0 0 .57-.15 1 1 0 0 0 .44-.43 1.64 1.64 0 0 0 .16-.88v-1.66a1.64 1.64 0 0 0-.16-.88 1 1 0 0 0-.44-.43 1.23 1.23 0 0 0-.57-.15h.58Zm-9.92 3.44a1.15 1.15 0 1 1 1.13-1.11 1.15 1.15 0 0 1-1.13 1.11Zm1.13-3.44v-1.14a1.16 1.16 0 0 1 1.17-1.15h3.5a1.17 1.17 0 0 1 1.17 1.15v1.14Zm7 3.44a1.15 1.15 0 1 1 1.21-1.11 1.15 1.15 0 0 1-1.21 1.11Zm8-14.01a1.59 1.59 0 0 0-.66-.65 2.59 2.59 0 0 0-1.34-.23h-3.7l2.55 3.67h2.46a.92.92 0 0 1 .93.91v-2.38a2.49 2.49 0 0 0-.24-1.32Z"/><path fill="#1ba0e2" d="M39.77 53.36h-2.46l-2.55 3.66h.4v8a.88.88 0 0 0 1.75 0v-8h1.58a2.59 2.59 0 0 0 1.35-.23 1.59 1.59 0 0 0 .65-.65 2.44 2.44 0 0 0 .23-1.32v-2.38a.93.93 0 0 1-.95.92Z"/><path fill="#92d2f1" d="M30.8 111.21a1 1 0 0 1-.91-.6l-10.81-24.6a1 1 0 0 1 1.83-.81l10.81 24.61a1 1 0 0 1-.51 1.31 1 1 0 0 1-.41.09ZM16.63 78.64a1 1 0 0 1-.92-.61l-2.58-6.09a1 1 0 0 1 .53-1.31 1 1 0 0 1 1.31.54l2.58 6.08a1 1 0 0 1-.53 1.31 1.09 1.09 0 0 1-.39.08Zm101.65 32.57a1 1 0 0 1-.4-.09 1 1 0 0 1-.51-1.31l10.81-24.61a1 1 0 1 1 1.83.81l-10.81 24.63a1 1 0 0 1-.92.57Zm14.21-32.57a1.09 1.09 0 0 1-.39-.08 1 1 0 0 1-.53-1.31l2.57-6.08a1.002 1.002 0 1 1 1.85.77l-2.58 6.09a1 1 0 0 1-.92.61Z"/><path fill="#123456" d="M133.72 127.35h-6.09a1 1 0 1 1 0-2h6.09a1 1 0 0 1 0 2Zm-114.05 0h-6.08a1 1 0 1 1 0-2h6.08a1 1 0 1 1 0 2Z"/></svg>