<svg xmlns="http://www.w3.org/2000/svg" width="148.61" height="147.32" viewBox="0 0 148.61 147.32"><path fill="#289ed8" d="M58.51 25.81s-24 5.1-36.17-4.83L24 27.24l-5.19 3.67s14.13 9.52 31.82 4.22Z"/><path fill="#123456" d="M39.62 37.75a41.16 41.16 0 0 1-21.37-6 1 1 0 0 1-.44-.82 1 1 0 0 1 .42-.82l4.62-3.28-1.48-5.58a1 1 0 0 1 .43-1.1 1 1 0 0 1 1.17.07c11.63 9.51 35.09 4.67 35.33 4.63a1 1 0 0 1 1.06.46 1 1 0 0 1-.09 1.16l-7.88 9.31a1 1 0 0 1-.47.32 39.4 39.4 0 0 1-11.3 1.65Zm-19-6.91c3.79 2.07 15.54 7.46 29.41 3.42l5.9-7c-6.27.95-21.73 2.45-31.94-3.88l.95 3.62a1 1 0 0 1-.38 1.07Z"/><path fill="#289ed8" d="M107.02 25.81s24 5.1 36.16-4.83l-1.66 6.26 5.19 3.67s-14.16 9.52-31.77 4.22Z"/><path fill="#123456" d="M125.94 37.75a39.28 39.28 0 0 1-11.29-1.66 1 1 0 0 1-.48-.32l-7.88-9.31a1 1 0 0 1-.09-1.16 1 1 0 0 1 1.06-.46c.24.05 23.71 4.88 35.33-4.63a1 1 0 0 1 1.17-.07 1 1 0 0 1 .43 1.1l-1.48 5.58 4.62 3.28a1 1 0 0 1 0 1.64 41.16 41.16 0 0 1-21.39 6.01Zm-10.44-3.49c13.87 4 25.62-1.35 29.41-3.42l-3.97-2.79a1 1 0 0 1-.38-1.07l.95-3.58c-10.22 6.33-25.68 4.83-31.95 3.88Z"/><path fill="#289ed8" d="M67.84 2a1.65 1.65 0 0 0-1.35.55l-3.68 4.1a5 5 0 0 0 1.43 7.87 50.86 50.86 0 0 0 17.7 5.17 1.67 1.67 0 0 0 1.56-2.6"/><path fill="#123456" d="M82.08 20.7h-.3a52.22 52.22 0 0 1-18-5.28A6 6 0 0 1 62.07 6l3.67-4.09a2.71 2.71 0 0 1 2.2-.91 1 1 0 0 1 .9 1.1 1 1 0 0 1-1.08.9.65.65 0 0 0-.53.23l-3.68 4.09a4 4 0 0 0 1.14 6.31A50.35 50.35 0 0 0 82 18.7a.67.67 0 0 0 .64-.33.65.65 0 0 0 0-.72 1 1 0 1 1 1.65-1.12 2.67 2.67 0 0 1-2.2 4.17Z"/><path fill="#d9f0f9" d="M83.45 17.09C80.08 12.12 72.88 2.41 67.84 2"/><path fill="#123456" d="M83.45 18.09a1 1 0 0 1-.82-.44C76.58 8.74 71.03 3.28 67.76 3a1 1 0 0 1-.92-1 1 1 0 0 1 1.1-1c5.1.39 11.71 8.64 16.36 15.5a1 1 0 0 1-.27 1.39 1 1 0 0 1-.58.2Z"/><path fill="#93d0ed" d="M86.26 18.66S61.08 7.15 66.94 2.06c7.15-6.17 19.32 16.6 19.32 16.6Z"/><path fill="#133456" d="M86.26 19.66a1 1 0 0 1-.42-.09c-2-.93-19.88-9.25-20.74-15.23a3.28 3.28 0 0 1 1.2-3A5.1 5.1 0 0 1 70.75.1c7.38 1.37 16 17.4 16.39 18.08a1 1 0 0 1-.2 1.16 1 1 0 0 1-.68.32ZM69.71 2a3.13 3.13 0 0 0-2.1.82 1.31 1.31 0 0 0-.53 1.24c.47 3.24 9.57 8.76 16.72 12.31-3.18-5.27-9-13.48-13.42-14.3a3.18 3.18 0 0 0-.67-.07Z"/><path fill="#289ed8" d="m107.94 8 2.22 5a5 5 0 0 1-3.81 7 50.84 50.84 0 0 1-18.38-.59 1.68 1.68 0 0 1-.68-3c4.79-3.57 14.65-10.55 19.57-9.35a1.67 1.67 0 0 1 1.08.94Z"/><path fill="#123456" d="M98.94 21.62a53.62 53.62 0 0 1-11.12-1.18 2.67 2.67 0 0 1-1.08-4.73c6.56-5.06 15.41-10.84 20.38-9.62a2.7 2.7 0 0 1 1.82 1.51l2.23 5a6 6 0 0 1-4.62 8.4 50.32 50.32 0 0 1-7.61.62Zm6.72-13.7c-3.5 0-10 3.41-17.7 9.37a.69.69 0 0 0-.24.69.67.67 0 0 0 .51.51 50.27 50.27 0 0 0 18 .57 4 4 0 0 0 3-5.64l-2.23-5a.66.66 0 0 0-.44-.39 4.2 4.2 0 0 0-.92-.11Z"/><path fill="#93d0ed" d="M84.18 17.12s27.51-3.12 23.51-9.75c-4.85-8.1-23.51 9.75-23.51 9.75Z"/><path fill="#133456" d="M84.18 18.12a1 1 0 0 1-.91-.58 1 1 0 0 1 .22-1.14c.56-.54 13.79-13.08 21.21-12.08a5.11 5.11 0 0 1 3.85 2.53 3.27 3.27 0 0 1 .19 3.26c-2.68 5.42-22.23 7.75-24.45 8Zm19.6-11.86c-4.59 0-12.11 5.62-16.55 9.46 7.9-1.16 18.27-3.56 19.72-6.49a1.3 1.3 0 0 0-.12-1.35 3.14 3.14 0 0 0-2.39-1.58c-.21-.02-.43-.04-.66-.04Z"/><path fill="#d9f0f9" d="M92.75 25.46v-9.05H36.21v9.05"/><path fill="#123456" d="M92.75 26.46a1 1 0 0 1-1-1v-8H37.21v8.05a1 1 0 0 1-2 0v-9a1 1 0 0 1 1-1h56.54a1 1 0 0 1 1 1v9.05a1 1 0 0 1-1 .9Z"/><path fill="#289ed8" d="M72.01 25.46v-9.05H56.95v9.05"/><path fill="#123456" d="M72.01 26.46a1 1 0 0 1-1-1v-8H57.94v8.05a1 1 0 0 1-2 0v-9a1 1 0 0 1 1-1h15.07a1 1 0 0 1 1 1v9.05a1 1 0 0 1-1 .9Z"/><path fill="#93d0ed" d="M92.75 28.11v-11.7l42.05 25.78-.22 8.61"/><path fill="#133456" d="M134.58 51.8a1 1 0 0 1-1-1l.21-8-40-24.55v9.92a1 1 0 0 1-2 0V16.41a1 1 0 0 1 .51-.88 1 1 0 0 1 1 0l42.06 25.79a1 1 0 0 1 .47.88l-.22 8.61a1 1 0 0 1-1.03.99Z"/><path fill="#93d0ed" d="M133.19 51.31h-52.6L36.21 26.48H88.8l44.39 24.83z"/><path fill="#133456" d="M133.19 52.31H80.6a1.05 1.05 0 0 1-.49-.13L35.72 27.35a1 1 0 0 1 .49-1.87h52.6a.91.91 0 0 1 .48.13l44.39 24.82a1 1 0 0 1-.49 1.88Zm-52.33-2h48.49L88.54 27.48H40.05Z"/><path fill="#93d0ed" d="m127.23 48.02-40.34-.27-37.64-21.27h42.78l35.2 21.54z"/><path fill="#133456" d="m127.23 49-40.35-.27a.89.89 0 0 1-.48-.13L48.76 27.35a1 1 0 0 1-.48-1.13 1 1 0 0 1 1-.74h42.75a1 1 0 0 1 .52.14l35.2 21.54a1 1 0 0 1-.52 1.86Zm-40.08-2.24 36.49.24-31.89-19.52h-38.7Z"/><path fill="#ffcc05" d="M113.15 36.2c-3.09-4.76-4.85-9.55-5-9.43-2.41 5.12-15.62 18.57-22.8 17.74-9.12-1-22.19-13.16-22.19-13.16a27.33 27.33 0 0 1-3.62 10.58 7.49 7.49 0 0 1-6.88 3.67c-9.51-.63-21.08-2.75-21.08-2.75L49.1 60.67l1 1.88 2.62 5.23h72l3.59-2.86 3-2c.8-6.29 16.28-18.54 16.28-18.54l-18.47.4a18.58 18.58 0 0 1-15.97-8.58Z"/><path fill="#123456" d="M124.69 68.78h-72a1 1 0 0 1-.89-.55l-3.55-7-17.38-17.68a1 1 0 0 1 .89-1.68c.12 0 11.63 2.11 21 2.73a6.46 6.46 0 0 0 6-3.18 26.4 26.4 0 0 0 3.51-10.21 1 1 0 0 1 .65-.81 1 1 0 0 1 1 .21c.13.12 12.93 11.9 21.62 12.9 6.56.78 19.46-12.22 21.79-17.16a.84.84 0 0 1 .22-.3 1 1 0 0 1 .88-.26c.56.11.67.36 1.3 1.72a60.89 60.89 0 0 0 4.32 8.14 17.56 17.56 0 0 0 15.13 8.09l18.47-.4a1 1 0 0 1 1 .66 1 1 0 0 1-.32 1.13c-4.22 3.33-15.29 13-15.91 17.88a1 1 0 0 1-.43.7l-3 2-3.53 2.81a1 1 0 0 1-.77.26Zm-71.35-2h71l3.32-2.64 2.76-1.85c1.12-5.24 10-13.22 14.32-16.89l-15.58.34a19.5 19.5 0 0 1-16.85-9 62.19 62.19 0 0 1-4.22-7.86c-3.92 5.87-15.66 17.44-22.84 16.62-7.68-.88-17.74-9-21.38-12.2a27.69 27.69 0 0 1-3.48 9.15 8.47 8.47 0 0 1-7.79 4.14c-6.51-.43-14-1.56-18.13-2.23L49.81 60a.81.81 0 0 1 .17.23l1 1.88Z"/><path fill="#faa91a" d="M127.84 50.85a93.58 93.58 0 0 1-13.43 1.6 5.66 5.66 0 0 1-5.29-3.22c-1.22-2.62-2.12-4.81-2.12-4.81A180.35 180.35 0 0 1 90.29 55.5a5.71 5.71 0 0 1-5.24.27c-6.65-3-16.19-9.45-16.19-9.45q-.27 1.88-.54 3.39A5.6 5.6 0 0 1 60.99 54a77.18 77.18 0 0 1-7.27-2.87l7.13 8.61 2.65 10.42h54l2.61-9.63a7.73 7.73 0 0 1 1.83-3.22Z"/><path fill="#93d0ed" d="M60.82 60.64h73.88v55.7H60.82z"/><path fill="#133456" d="M134.71 117.34H60.82a1 1 0 0 1-1-1v-55.7a1 1 0 0 1 1-1h73.89a1 1 0 0 1 1 1v55.7a1 1 0 0 1-1 1Zm-72.89-2h71.89v-53.7H61.82Z"/><path fill="#d9f0f9" d="M44.59 60.64h43.34v55.7H44.59z"/><path fill="#123456" d="M87.94 117.34H44.59a1 1 0 0 1-1-1v-55.7a1 1 0 0 1 1-1h43.35a1 1 0 0 1 1 1v55.7a1 1 0 0 1-1 1Zm-42.34-2h41.34v-53.7H45.59Z"/><path fill="#289ed8" d="M72.19 80.61a7.36 7.36 0 1 0-12.25 5.46v7.47a4.11 4.11 0 0 0 4.1 4.1h1.84a4.11 4.11 0 0 0 4.1-4.1v-7.67a7.33 7.33 0 0 0 2.21-5.26Z"/><path fill="#123456" d="M65.87 98.64h-1.84a5.11 5.11 0 0 1-5.1-5.1v-7a8.34 8.34 0 0 1 4.12-14.07 8.45 8.45 0 0 1 7.06 1.69 8.37 8.37 0 0 1 .83 12.12v7.26a5.1 5.1 0 0 1-5.07 5.1Zm-1.06-24.39a6.88 6.88 0 0 0-1.35.14 6.34 6.34 0 0 0-2.86 10.94 1 1 0 0 1 .33.74v7.47a3.1 3.1 0 0 0 3.1 3.1h1.84a3.1 3.1 0 0 0 3.1-3.1v-7.67a1 1 0 0 1 .3-.71 6.36 6.36 0 0 0-4.46-10.91Z"/><path fill="#289ed8" d="M40.69 116.39h98.15"/><path fill="#123456" d="M138.84 117.39H40.69a1 1 0 1 1 0-2h98.15a1 1 0 0 1 0 2Z"/><path fill="#fff" d="M102.04 89.78a1.69 1.69 0 0 0 .68-.15 3.46 3.46 0 0 1 1.61-.52 5.7 5.7 0 0 1 2.42.83 1.49 1.49 0 0 0 1.13-.12 3.54 3.54 0 0 0 .66-2.57c-.35-2-1.79-4.67-.9-6.7 1.56-3.57 6.42-4.82 6.42-4.82s-.19 2.83-.27 5.18v2.74c-.13.7 2.05 10.08 4.18 12a15.5 15.5 0 0 0 5 3.59s-.77-.24-.84-.15a.49.49 0 0 0 .24.48 34.83 34.83 0 0 0-6.38-2.69c-3-.9-6-1.07-8.36-2.11s-2.14-3.09-4.9-4.18a47.09 47.09 0 0 0-6.34-1.73Z"/><path fill="#f0efef" d="M116.99 92.56c.12-.69 1.94-3.77 4.17-6.7 2.5-3.28 5.44-6.42 5.44-6.42a38.84 38.84 0 0 0-6.67 1.5 37.37 37.37 0 0 0-3.72 1.5s-.27 6.46.73 10.62a2.89 2.89 0 0 1 .05-.5Z"/><path fill="#dededd" d="M116.21 82.44c-1.41.66-2.4 1.21-2.4 1.21-.14.69 2 10.08 4.18 12a4.06 4.06 0 0 1-1-2.61c-1.05-4.14-.78-10.6-.78-10.6Z"/><path fill="#ffcc05" d="M20.55 45.49c-4.86 0-4.05-4.61-4.05-4.61-.49-.73-.88-.94-1.2-.91s-.71.18-1.19.91c0 0 .82 4.62-4 4.62 0 0-1.48 1.3 0 1.85s4.1-.52 4.1 5.16a2.92 2.92 0 0 0 .7.74.58.58 0 0 0 .45.17.58.58 0 0 0 .44-.17 2.92 2.92 0 0 0 .7-.74c0-5.68 2.61-4.62 4.09-5.17s-.04-1.85-.04-1.85ZM31.94 8.75a2.55 2.55 0 0 1-2.73-3.1c-.27-.49-.56-.65-.77-.65s-.47.12-.8.61a2.55 2.55 0 0 1-2.7 3.15s-1 .87 0 1.24 2.75-.35 2.75 3.47a1.9 1.9 0 0 0 .47.5.46.46 0 0 0 .6 0 1.9 1.9 0 0 0 .47-.5c0-3.82 1.75-3.1 2.75-3.48s-.04-1.24-.04-1.24Z"/><path fill="#d9f0f9" stroke="#123456" stroke-linecap="round" stroke-linejoin="round" stroke-width="2" d="M73.12 50.91"/><path fill="#ffcc05" d="M15.51 63.25C7.51 63.25 1 71.16 1 80.91s6.49 17.66 14.51 17.66 14.5-7.9 14.5-17.66-6.49-17.66-14.5-17.66Zm0 27.91c-4.1 0-7.43-4.59-7.43-10.25s3.33-10.25 7.43-10.25 7.43 4.59 7.43 10.25-3.34 10.25-7.43 10.25Z"/><path fill="#123456" d="M15.51 99.57C6.94 99.57 0 91.2 0 80.91s6.94-18.66 15.51-18.66 15.5 8.37 15.5 18.66-6.95 18.66-15.5 18.66Zm0-35.32C8.06 64.25 2 71.73 2 80.91s6.06 16.66 13.51 16.66 13.5-7.47 13.5-16.66-6.07-16.66-13.5-16.66Zm0 27.91c-4.65 0-8.43-5-8.43-11.25s3.78-11.25 8.43-11.25 8.43 5.05 8.43 11.25-3.79 11.25-8.43 11.25Zm0-20.5c-3.55 0-6.43 4.15-6.43 9.25s2.88 9.25 6.43 9.25 6.43-4.16 6.43-9.25-2.89-9.25-6.43-9.25Z"/><path fill="#ffcc05" d="M29 78.09h35a2.17 2.17 0 0 1 2.17 2.17v3.53a.56.56 0 0 1-.56.56H29a.56.56 0 0 1-.56-.56v-5.14a.56.56 0 0 1 .56-.56Z"/><path fill="#ffcc05" d="M60.43 80.71h5.64v12.32h-5.64zm-10.88 0h5.64v9.02h-5.64z"/><path fill="#123456" d="M63.7 94.17h-.76a3.44 3.44 0 0 1-3.43-3.43v-5.4h-4V88a2.77 2.77 0 0 1-2.76 2.76H51.3A2.76 2.76 0 0 1 48.55 88v-2.66H28.43a1 1 0 1 1 0-2h21.12a1 1 0 0 1 1 1V88a.76.76 0 0 0 .75.76h1.41a.76.76 0 0 0 .76-.76v-3.66a1 1 0 0 1 1-1h6a1 1 0 0 1 1 1v6.4a1.43 1.43 0 0 0 1.47 1.43h.79a1.44 1.44 0 0 0 1.43-1.43V79.59A1.63 1.63 0 0 0 63.5 78H28.43a1 1 0 1 1 0-2H63.5a3.63 3.63 0 0 1 3.63 3.62v11.12a3.44 3.44 0 0 1-3.43 3.43Z"/><path fill="#d9f0f9" d="m51.85 139.99-29.67 6.33-7.32-34.29 11.21-17.31 18.46 10.97 7.32 34.3z"/><path fill="#123456" d="M22.18 147.32a1 1 0 0 1-.54-.16 1 1 0 0 1-.43-.63l-7.33-34.3a1 1 0 0 1 .14-.75l11.22-17.3a1 1 0 0 1 1.35-.32l18.45 11a1 1 0 0 1 .47.65l7.32 34.3a1 1 0 0 1-.77 1.18l-29.67 6.31Zm-6.24-35.1 7 32.91 27.72-5.92-7-32.88-17.27-10.26Z"/><circle cx="28.45" cy="104.98" r="2.62" fill="#fff"/><path fill="#123456" d="M28.45 108.1a3.12 3.12 0 1 1 3.12-3.1 3.12 3.12 0 0 1-3.12 3.1Zm0-5.24a2.12 2.12 0 1 0 2.12 2.14 2.12 2.12 0 0 0-2.12-2.14Z"/><circle cx="32.02" cy="117.64" r="4.41" fill="#289ed8"/><path fill="#289ed8" d="m29.934 124.637 5.85-1.33a5.53 5.53 0 0 1 6.619 4.168l1.023 4.505-16.577 3.766-1.022-4.495a5.53 5.53 0 0 1 4.107-6.614Z"/><path fill="#123456" d="M20.44 103.71a.46.46 0 0 1-.32-.11 21.5 21.5 0 0 1-4.18-4.76.5.5 0 1 1 .83-.55 21 21 0 0 0 4 4.54.51.51 0 0 1 .06.71.52.52 0 0 1-.39.17Zm5.78 2.61h-.08a.51.51 0 0 1-.5-.51.49.49 0 0 1 .51-.49 3.28 3.28 0 0 0 1.86-.5c1.25-.81 1.81-2.57 1.58-4.94a18.3 18.3 0 0 0-3-8 18.34 18.34 0 0 0-6.06-6c-2.08-1.17-3.91-1.36-5.16-.54s-1.86 2.73-1.56 5.21a.504.504 0 0 1-1 .12c-.35-2.91.36-5.1 2-6.17s3.78-.85 6.2.5a19.43 19.43 0 0 1 6.41 6.32 19.47 19.47 0 0 1 3.21 8.41c.27 2.76-.46 4.85-2 5.88a4.19 4.19 0 0 1-2.41.71Z"/><ellipse cx="92.6" cy="130.88" fill="#93d0ed" rx="33.55" ry="3.86"/></svg>